<mxfile host="app.diagrams.net" modified="2024-07-14T03:34:41.712Z" agent="Mozilla/5.0 (Windows NT 10.0; Win64; x64) AppleWebKit/537.36 (KHTML, like Gecko) Chrome/126.0.0.0 Safari/537.36" etag="p8EBgeeQ_xsbIkxm9XEB" version="24.6.5" type="github" pages="2">
  <diagram name="第 1 页" id="_5oCOYHgwMwmI75yHyrK">
    <mxGraphModel dx="794" dy="1589" grid="1" gridSize="10" guides="1" tooltips="1" connect="1" arrows="1" fold="1" page="1" pageScale="1" pageWidth="827" pageHeight="1169" math="0" shadow="0">
      <root>
        <mxCell id="0" />
        <mxCell id="1" parent="0" />
        <mxCell id="JDdFgm-M0zn8cweRudDp-1" value="" style="whiteSpace=wrap;html=1;aspect=fixed;" parent="1" vertex="1">
          <mxGeometry x="374" y="-187" width="80" height="80" as="geometry" />
        </mxCell>
        <mxCell id="JDdFgm-M0zn8cweRudDp-2" value="" style="image;sketch=0;aspect=fixed;html=1;points=[];align=center;fontSize=12;image=img/lib/mscae/VirtualMachineWindows.svg;" parent="1" vertex="1">
          <mxGeometry x="150" y="-170" width="50" height="46" as="geometry" />
        </mxCell>
        <mxCell id="JDdFgm-M0zn8cweRudDp-3" value="" style="endArrow=classic;html=1;rounded=0;entryX=0;entryY=0.5;entryDx=0;entryDy=0;" parent="1" target="JDdFgm-M0zn8cweRudDp-1" edge="1">
          <mxGeometry width="50" height="50" relative="1" as="geometry">
            <mxPoint x="200" y="-150" as="sourcePoint" />
            <mxPoint x="250" y="-200" as="targetPoint" />
          </mxGeometry>
        </mxCell>
      </root>
    </mxGraphModel>
  </diagram>
  <diagram id="eeDY5NbfKVJLCrMCxqRj" name="第 2 页">
    <mxGraphModel dx="794" dy="420" grid="1" gridSize="10" guides="1" tooltips="1" connect="1" arrows="1" fold="1" page="1" pageScale="1" pageWidth="827" pageHeight="1169" math="0" shadow="0">
      <root>
        <mxCell id="0" />
        <mxCell id="1" parent="0" />
      </root>
    </mxGraphModel>
  </diagram>
</mxfile>
